<?xml version="1.0" encoding="UTF-8"?>
<svg id="Layer_1" data-name="Layer 1" xmlns="http://www.w3.org/2000/svg" viewBox="0 0 592.86 70.58">
  <defs>
    <style>
      .cls-1 {
        fill: #feecd4;
      }
    </style>
  </defs>
  <polygon class="cls-1" points="33.54 23.88 22.83 23.88 22.83 1.05 0 1.05 0 69.53 22.83 69.53 22.83 44.42 33.54 44.42 33.54 69.53 56.36 69.53 56.36 1.05 33.54 1.05 33.54 23.88"/>
  <polygon class="cls-1" points="72.96 1.05 61.63 1.05 61.63 69.53 72.96 69.53 84.46 69.53 105.44 69.53 105.44 50.48 84.46 50.48 84.46 43.02 102.72 43.02 102.72 27.13 84.46 27.13 84.46 20.1 105.44 20.1 105.44 1.05 84.46 1.05 72.96 1.05"/>
  <path class="cls-1" d="M141.61,1.05h-1.14s-14.57,0-14.57,0l-18.26,68.48h23.35s1.92-8.69,1.92-8.69h16.34s1.94,8.69,1.94,8.69h23.44S156.36,1.05,156.36,1.05h-14.75ZM136.41,44.95l4.62-20.93,4.66,20.93h-9.29Z"/>
  <path class="cls-1" d="M228.96,36.57c2.46-3.42,3.69-7.68,3.69-12.77,0-4.92-1.19-9.07-3.56-12.47-2.37-3.39-5.57-5.95-9.61-7.68-4.04-1.73-8.57-2.59-13.61-2.59h-5.79s-4.57,0-4.57,0h-18.26s0,68.48,0,68.48h22.83s0-22.91,0-22.91h.92s9.88,22.91,9.88,22.91h24.58s-12.42-27.35-12.42-27.35c2.32-1.48,4.3-3.35,5.92-5.61ZM204.03,20.28c1.58,0,2.9.37,3.95,1.1,1.05.73,1.58,1.83,1.58,3.29,0,1.52-.51,2.65-1.54,3.38-1.02.73-2.36,1.1-3.99,1.1h-3.95v-8.87h3.95Z"/>
  <polygon class="cls-1" points="248.19 1.05 235.02 1.05 235.02 21.6 248.19 21.6 248.19 69.53 271.01 69.53 271.01 21.6 284.18 21.6 284.18 1.05 271.01 1.05 248.19 1.05"/>
  <polygon class="cls-1" points="351.78 1.05 345.72 35.47 339.23 1.05 322.37 1.05 315.71 35.67 309.82 1.05 285.06 1.05 300.69 69.53 325.53 69.53 330.58 43.05 335.54 69.53 360.39 69.53 376.37 1.05 351.78 1.05"/>
  <path class="cls-1" d="M429.39,4.39C423.77,1.46,417.6,0,410.87,0c-6.73,0-12.88,1.46-18.44,4.39-5.56,2.93-9.95,7.07-13.17,12.42-3.22,5.35-4.83,11.49-4.83,18.39,0,7.2,1.67,13.48,5,18.83,3.34,5.36,7.78,9.45,13.35,12.29,5.56,2.84,11.59,4.26,18.09,4.26,6.61,0,12.71-1.43,18.3-4.3,5.59-2.87,10.05-6.98,13.39-12.34,3.34-5.35,5-11.6,5-18.74,0-6.9-1.62-13.04-4.87-18.39-3.25-5.35-7.68-9.5-13.3-12.42ZM422.06,42.14c-1.14,1.99-2.69,3.54-4.65,4.65-1.96,1.11-4.11,1.67-6.45,1.67s-4.48-.54-6.41-1.62c-1.93-1.08-3.47-2.63-4.61-4.65-1.14-2.02-1.71-4.35-1.71-6.98,0-2.52.57-4.77,1.71-6.76,1.14-1.99,2.68-3.53,4.61-4.61,1.93-1.08,4.07-1.62,6.41-1.62,2.34,0,4.48.54,6.41,1.62,1.93,1.08,3.48,2.62,4.65,4.61,1.17,1.99,1.76,4.24,1.76,6.76,0,2.63-.57,4.95-1.71,6.94Z"/>
  <path class="cls-1" d="M506.56,4.39C500.94,1.46,494.77,0,488.04,0s-12.88,1.46-18.44,4.39c-5.56,2.93-9.95,7.07-13.17,12.42-3.22,5.35-4.83,11.49-4.83,18.39,0,7.2,1.67,13.48,5,18.83,3.34,5.36,7.78,9.45,13.34,12.29,5.56,2.84,11.59,4.26,18.09,4.26,6.61,0,12.71-1.43,18.3-4.3,5.59-2.87,10.05-6.98,13.39-12.34,3.34-5.35,5-11.6,5-18.74,0-6.9-1.62-13.04-4.87-18.39-3.25-5.35-7.68-9.5-13.3-12.42ZM499.23,42.14c-1.14,1.99-2.69,3.54-4.65,4.65-1.96,1.11-4.11,1.67-6.45,1.67-2.34,0-4.48-.54-6.41-1.62-1.93-1.08-3.47-2.63-4.61-4.65-1.14-2.02-1.71-4.35-1.71-6.98,0-2.52.57-4.77,1.71-6.76,1.14-1.99,2.68-3.53,4.61-4.61,1.93-1.08,4.07-1.62,6.41-1.62s4.48.54,6.41,1.62c1.93,1.08,3.48,2.62,4.65,4.61,1.17,1.99,1.76,4.24,1.76,6.76,0,2.63-.57,4.95-1.71,6.94Z"/>
  <path class="cls-1" d="M587.9,16.94c-3.31-5.15-7.86-9.09-13.65-11.81-5.79-2.72-12.38-4.08-19.75-4.08h-2.28s-4.21,0-4.21,0h-18.61s0,68.48,0,68.48h22.83s0-.09,0-.09h2.28c7.2,0,13.7-1.32,19.49-3.95,5.79-2.63,10.39-6.53,13.78-11.68,3.39-5.15,5.09-11.35,5.09-18.61,0-7.02-1.65-13.11-4.96-18.26ZM567.53,42.36c-1.26,2.08-3.04,3.69-5.36,4.83-2.31,1.14-4.96,1.71-7.94,1.71h-2.02v-27.3h2.02c2.99,0,5.63.57,7.94,1.71,2.31,1.14,4.1,2.75,5.36,4.83,1.26,2.08,1.89,4.43,1.89,7.07,0,2.69-.63,5.08-1.89,7.16Z"/>
</svg>