<?xml version="1.0" encoding="UTF-8"?>
<svg id="Layer_1" data-name="Layer 1" xmlns="http://www.w3.org/2000/svg" viewBox="0 0 288 288">
  <g id="dots">
    <circle cx="144" cy="129" r="5"/>
    <circle cx="144" cy="114" r="5"/>
    <circle cx="144" cy="99" r="5"/>
    <circle cx="144" cy="84" r="5"/>
    <circle cx="129" cy="84" r="5"/>
    <circle cx="114" cy="84" r="5"/>
    <circle cx="99" cy="84" r="5"/>
    <circle cx="159" cy="84" r="5"/>
    <circle cx="174" cy="84" r="5"/>
    <circle cx="189" cy="84" r="5"/>
    <circle cx="204" cy="84" r="5"/>
    <circle cx="114" cy="99" r="5"/>
    <circle cx="114" cy="114" r="5"/>
    <circle cx="174" cy="99" r="5"/>
    <circle cx="174" cy="114" r="5"/>
    <circle cx="174" cy="129" r="5"/>
    <circle cx="204" cy="99" r="5"/>
    <circle cx="204" cy="114" r="5"/>
    <circle cx="84" cy="114" r="5"/>
    <circle cx="84" cy="99" r="5"/>
    <circle cx="114" cy="129" r="5"/>
    <circle cx="129" cy="129" r="5"/>
    <circle cx="159" cy="129" r="5"/>
    <circle cx="189" cy="129" r="5"/>
    <circle cx="114" cy="144" r="5"/>
    <circle cx="99" cy="144" r="5"/>
    <circle cx="84" cy="144" r="5"/>
    <circle cx="84" cy="129" r="5"/>
    <circle cx="84" cy="159" r="5"/>
    <circle cx="84" cy="174" r="5"/>
    <circle cx="84" cy="189" r="5"/>
    <circle cx="99" cy="189" r="5"/>
    <circle cx="114" cy="189" r="5"/>
    <circle cx="129" cy="189" r="5"/>
    <circle cx="144" cy="189" r="5"/>
    <circle cx="159" cy="189" r="5"/>
    <circle cx="174" cy="189" r="5"/>
    <circle cx="189" cy="189" r="5"/>
    <circle cx="204" cy="129" r="5"/>
    <circle cx="204" cy="144" r="5"/>
    <circle cx="204" cy="159" r="5"/>
    <circle cx="204" cy="174" r="5"/>
    <circle cx="114" cy="204" r="5"/>
    <circle cx="99" cy="204" r="5"/>
    <circle cx="174" cy="204" r="5"/>
    <circle cx="189" cy="204" r="5"/>
    <circle cx="144" cy="129" r="5"/>
    <circle cx="144" cy="114" r="5"/>
    <circle cx="144" cy="99" r="5"/>
    <circle cx="144" cy="84" r="5"/>
  </g>
</svg>