<?xml version="1.0" encoding="UTF-8"?>
<svg id="Layer_1" data-name="Layer 1" xmlns="http://www.w3.org/2000/svg" viewBox="0 0 288 288">
  <g id="dots">
    <circle cx="84" cy="106.5" r="5"/>
    <circle cx="204" cy="121.5" r="5"/>
    <circle cx="204" cy="136.5" r="5"/>
    <circle cx="204" cy="151.5" r="5"/>
    <circle cx="204" cy="166.5" r="5"/>
    <circle cx="204" cy="196.5" r="5"/>
    <circle cx="204" cy="181.5" r="5"/>
    <circle cx="84" cy="121.5" r="5"/>
    <circle cx="84" cy="136.5" r="5"/>
    <circle cx="84" cy="151.5" r="5"/>
    <circle cx="84" cy="166.5" r="5"/>
    <circle cx="84" cy="181.5" r="5"/>
    <circle cx="84" cy="196.5" r="5"/>
    <circle cx="84" cy="91.5" r="5"/>
    <circle cx="99" cy="91.5" r="5"/>
    <circle cx="129" cy="91.5" r="5"/>
    <circle cx="114" cy="91.5" r="5"/>
    <circle cx="144" cy="106.5" r="5"/>
    <circle cx="159" cy="106.5" r="5"/>
    <circle cx="174" cy="106.5" r="5"/>
    <circle cx="204" cy="106.5" r="5"/>
    <circle cx="189" cy="106.5" r="5"/>
    <circle cx="99" cy="196.5" r="5"/>
    <circle cx="114" cy="196.5" r="5"/>
    <circle cx="129" cy="196.5" r="5"/>
    <circle cx="144" cy="196.5" r="5"/>
    <circle cx="159" cy="196.5" r="5"/>
    <circle cx="189" cy="196.5" r="5"/>
    <circle cx="174" cy="196.5" r="5"/>
    <circle cx="129" cy="106.5" r="5"/>
    <circle cx="84" cy="106.5" r="5"/>
    <circle cx="204" cy="121.5" r="5"/>
    <circle cx="204" cy="136.5" r="5"/>
    <circle cx="204" cy="151.5" r="5"/>
    <circle cx="204" cy="166.5" r="5"/>
    <circle cx="204" cy="196.5" r="5"/>
    <circle cx="204" cy="181.5" r="5"/>
    <circle cx="84" cy="121.5" r="5"/>
    <circle cx="84" cy="136.5" r="5"/>
    <circle cx="84" cy="151.5" r="5"/>
    <circle cx="84" cy="166.5" r="5"/>
    <circle cx="84" cy="181.5" r="5"/>
    <circle cx="84" cy="196.5" r="5"/>
    <circle cx="84" cy="91.5" r="5"/>
    <circle cx="99" cy="91.5" r="5"/>
    <circle cx="129" cy="91.5" r="5"/>
    <circle cx="114" cy="91.5" r="5"/>
    <circle cx="144" cy="106.5" r="5"/>
    <circle cx="159" cy="106.5" r="5"/>
    <circle cx="174" cy="106.5" r="5"/>
  </g>
</svg>